<?xml version="1.0" encoding="UTF-8" standalone="no"?>
<svg
   xmlns:dc="http://purl.org/dc/elements/1.1/"
   xmlns:cc="http://creativecommons.org/ns#"
   xmlns:rdf="http://www.w3.org/1999/02/22-rdf-syntax-ns#"
   xmlns:svg="http://www.w3.org/2000/svg"
   xmlns="http://www.w3.org/2000/svg"
   id="svg22"
   version="1.1"
   height="26.927645"
   width="19.944427"
   viewBox="0 0 19.944428 26.927645">
  <metadata
     id="metadata28">
    <rdf:RDF>
      <cc:Work
         rdf:about="">
        <dc:format>image/svg+xml</dc:format>
        <dc:type
           rdf:resource="http://purl.org/dc/dcmitype/StillImage" />
        <dc:title></dc:title>
      </cc:Work>
    </rdf:RDF>
  </metadata>
  <defs
     id="defs26" />
  <g
     style="color:#2cccbe;fill:#2cccbe"
     id="g16"
     transform="matrix(0.252174,0,0,0.252174,-2.6364862,-1.036183)">
    <svg
       id="svg14"
       version="1.1"
       viewBox="0 0 100 115"
       y="0.0"
       x="0.0"
       height="115"
       width="100">
      <g
         id="g12">
        <path
           id="path2"
           d="M 69.17,76.042 C 61.5,63.418 66.922,48.167 69,41.667 c 0.542,-1.694 -2.75,-1.375 -2.75,-1.375 -7,0 -25.563,0 -32.5,0 0,0 -3.209,-0.319 -2.75,1.375 1.781,6.587 7.5,21.751 -0.17,34.375 -3.6,5.926 -5.307,13.531 -1.796,19.181 2.403,0 38.653,0 41.931,0.003 3.512,-5.65 1.806,-13.257 -1.795,-19.184 z" />
        <path
           id="path4"
           d="m 61,39.639 6.917,-11.583 c 0,0 0.666,-1.583 2.583,-0.583 l 1.834,0.916 c 0,0 1,0.417 0,1.75 -1,1.334 -8.334,9.5 -8.334,9.5 z" />
        <path
           id="path6"
           d="M 89.167,95.848 H 10.833 c 0,0 -0.417,-0.082 -0.375,0.251 0.042,0.333 1.626,6.708 5.584,8.458 3.958,1.75 11.541,3 13.458,4.625 0,0 0.542,1.709 2.625,1.709 H 50 67.875 c 2.083,0 2.625,-1.709 2.625,-1.709 1.917,-1.625 9.5,-2.875 13.458,-4.625 3.958,-1.75 5.542,-8.125 5.584,-8.458 0.042,-0.333 -0.375,-0.251 -0.375,-0.251 z" />
        <path
           id="path8"
           d="m 52.669,36.443 c 0,0 4.629,-7.749 -0.621,-17.75 -5.25,-10 1.253,-14.584 1.253,-14.584 0,0 -5.345,5.751 -0.632,13.667 4.712,7.917 2.462,15.251 0,18.667 z" />
        <path
           id="path10"
           d="m 48.824,39.486 c 0,0 2.75,-4.604 -0.37,-10.546 -3.118,-5.941 0.745,-8.664 0.745,-8.664 0,0 -3.176,3.416 -0.375,8.119 2.799,4.705 1.462,9.062 0,11.091 z" />
      </g>
    </svg>
  </g>
</svg>
